<?xml version="1.0" encoding="UTF-8"?>
<svg width="21px" height="21px" viewBox="0 0 21 21" version="1.1" xmlns="http://www.w3.org/2000/svg" xmlns:xlink="http://www.w3.org/1999/xlink">
    <!-- Generator: Sketch 46.2 (44496) - http://www.bohemiancoding.com/sketch -->
    <title>icon</title>
    <desc>Created with Sketch.</desc>
    <defs></defs>
    <g id="Mobile" stroke="none" stroke-width="1" fill="none" fill-rule="evenodd">
        <g id="Mobile---Landing-Page" transform="translate(-15.000000, -2240.000000)" fill-rule="nonzero" fill="#A0A6AD">
            <g id="For-Escorts" transform="translate(0.000000, 1814.000000)">
                <g id="Content" transform="translate(15.000000, 426.000000)">
                    <g id="icon">
                        <path d="M19.4506099,5.94984526 C17.4366872,1.70591132 12.7682221,-0.595452645 8.17557963,0.391712584 C3.58293718,1.37887781 0.272443595,5.39527853 0.180250431,10.0919114 C0.0880572677,14.7885443 3.23838043,18.9317684 7.78874451,20.0984075 C12.3391086,21.2650465 17.0942924,19.1486653 19.2732132,14.9870353 C19.5421954,14.4732928 19.3437779,13.838769 18.8300353,13.5697868 C18.3162928,13.3008046 17.681769,13.4992221 17.4127868,14.0129647 C15.6857903,17.3114417 11.9168669,18.9888698 8.31028201,18.0642004 C4.70369715,17.1395309 2.20677434,13.8556421 2.27984596,10.1331257 C2.35291758,6.41060926 4.97679027,3.2272398 8.61688466,2.44481995 C12.256979,1.66240011 15.9571699,3.48644414 17.5533901,6.85015474 C17.8020037,7.37405751 18.428252,7.59722348 18.9521547,7.34860988 C19.4760575,7.09999628 19.6992235,6.47374803 19.4506099,5.94984526 Z" id="Shape"></path>
                        <path d="M18.4380461,5.43755983 L17.884,6.502 L18.5293376,7.5137012 L19.4323376,6.9377012 L18.787,5.926 L17.5882034,5.97972758 L17.6362034,7.05072758 L18.835,6.997 L19.3890461,5.93255983 L18.4380461,5.43755983 Z M15.4874008,6.60738258 L19.8928004,3.79729381 L20.1269744,9.02230262 L15.4874008,6.60738258 Z" id="Shape"></path>
                    </g>
                </g>
            </g>
        </g>
    </g>
</svg>