<?xml version="1.0" encoding="UTF-8"?>
<svg width="20px" height="18px" viewBox="0 0 20 18" version="1.1" xmlns="http://www.w3.org/2000/svg" xmlns:xlink="http://www.w3.org/1999/xlink">
    <!-- Generator: Sketch 46.2 (44496) - http://www.bohemiancoding.com/sketch -->
    <title>icon</title>
    <desc>Created with Sketch.</desc>
    <defs></defs>
    <g id="Designs" stroke="none" stroke-width="1" fill="none" fill-rule="evenodd">
        <g id="Desktop" transform="translate(-177.000000, -1849.000000)" fill-rule="nonzero" fill="#FFFFFF">
            <g id="Content" transform="translate(0.000000, 1619.000000)">
                <g id="3-benefits">
                    <g id="Group-Copy-2" transform="translate(177.000000, 230.000000)">
                        <g id="icon">
                            <path d="M19.9684211,6.19473684 C19.9695277,5.33916849 19.387798,4.59280686 18.5578555,4.38497547 C17.727913,4.17714408 16.8630916,4.56126526 16.4608555,5.31638412 C16.0586193,6.07150299 16.2223618,7.00351883 16.8578947,7.57631579 C16.6842105,8.29210526 15.4236842,9.02894737 13.4763158,9.44736842 L13.4763158,0.5 C13.4763158,0.354661908 13.358496,0.236842105 13.2131579,0.236842105 L6.78421053,0.236842105 C6.63887243,0.236842105 6.52105263,0.354661908 6.52105263,0.5 L6.52105263,9.44736842 C4.56578947,9.01842105 3.32105263,8.26578947 3.19473684,7.54210526 C3.74495271,7.00700127 3.91073302,6.1892466 3.61235195,5.48210975 C3.31397088,4.7749729 2.61249014,4.32316478 1.84526063,4.34396558 C1.07803113,4.36476638 0.402061324,4.85391936 0.142433595,5.5761847 C-0.117194133,6.29845004 0.0926513177,7.10602091 0.671052632,7.61052632 L0.671052632,17.4078947 C0.671052632,17.5532328 0.788872434,17.6710526 0.934210526,17.6710526 L19.0657895,17.6710526 C19.2111276,17.6710526 19.3289474,17.5532328 19.3289474,17.4078947 L19.3289474,7.59736842 C19.7351641,7.24448733 19.9684368,6.73282334 19.9684211,6.19473684 Z M18.1052632,5.12105263 C18.5773472,5.12049323 18.9944126,5.42835781 19.1329483,5.87965761 C19.271484,6.33095742 19.0989846,6.819801 18.7078947,7.08421053 L18.6842105,7.10526316 C18.6396643,7.13410538 18.5930459,7.15961355 18.5447368,7.18157895 L18.4605263,7.21315789 L18.3789474,7.23947368 L18.2684211,7.26315789 L18.2236842,7.26315789 C18.1423544,7.2721745 18.0602772,7.2721745 17.9789474,7.26315789 L17.9342105,7.26315789 L17.8236842,7.23947368 L17.7421053,7.21315789 L17.6578947,7.18157895 C17.612286,7.15928305 17.5683161,7.13378047 17.5263158,7.10526316 L17.5026316,7.09210526 C17.1115417,6.82769574 16.9390423,6.33885216 17.077578,5.88755235 C17.2161138,5.43625254 17.6331791,5.12838796 18.1052632,5.12894737 L18.1052632,5.12105263 Z M7.31578947,1.01315789 L12.6894737,1.01315789 L12.6894737,9.59210526 C11.8106309,9.72449053 10.9229641,9.78959196 10.0342105,9.78684211 C9.1232193,9.78972598 8.21340722,9.72109412 7.31315789,9.58157895 L7.31578947,1.01315789 Z M12.6894737,12.6315789 L7.31052632,12.6315789 L7.31052632,10.3842105 C8.2116153,10.514797 9.12108076,10.5790049 10.0315789,10.5763158 C10.9198603,10.5790651 11.8072043,10.5183844 12.6868421,10.3947368 L12.6894737,12.6315789 Z M1.9,5.11578947 C2.37208405,5.11523007 2.7891494,5.42309465 2.92768513,5.87439446 C3.06622086,6.32569426 2.89372142,6.81453784 2.50263158,7.07894737 L2.47368421,7.10526316 C2.43075325,7.13297939 2.38590296,7.15760308 2.33947368,7.17894737 L2.25526316,7.21052632 L2.17368421,7.23684211 L2.06315789,7.26052632 L2.01842105,7.26052632 C1.93709125,7.26954292 1.85501402,7.26954292 1.77368421,7.26052632 L1.72894737,7.26052632 L1.61842105,7.23684211 L1.53684211,7.21052632 L1.45526316,7.17894737 C1.40702815,7.15783896 1.36041115,7.13321111 1.31578947,7.10526316 L1.29473684,7.10526316 C0.903646998,6.84085363 0.731147561,6.35201005 0.869683293,5.90071024 C1.00821902,5.44941044 1.42528437,5.14154586 1.89736842,5.14210526 L1.9,5.11578947 Z M1.46052632,16.8815789 L1.46052632,8.00789474 L1.48684211,8.00789474 L1.63157895,8.03421053 L1.68947368,8.03421053 C1.82758361,8.05063438 1.96715323,8.05063438 2.10526316,8.03421053 L2.16315789,8.03421053 L2.30789474,8.00789474 L2.33421053,8.00789474 L2.33421053,16.8815789 L1.46052632,16.8815789 Z M3.11842105,8.80263158 C3.82631579,9.43421053 5.01842105,9.93947368 6.52105263,10.2473684 L6.52105263,12.8789474 L3.11842105,16.3157895 L3.11842105,8.80263158 Z M3.66842105,16.8815789 L7.08157895,13.4210526 L12.9184211,13.4210526 L16.3394737,16.8763158 L3.66842105,16.8815789 Z M13.4789474,12.8684211 L13.4789474,10.2631579 C14.9684211,9.96578947 16.1552632,9.47368421 16.8815789,8.86052632 L16.8815789,16.3157895 L13.4789474,12.8684211 Z M18.5394737,8.00789474 L18.5394737,16.8815789 L17.6710526,16.8815789 L17.6710526,8.00789474 L17.6973684,8.00789474 L17.8421053,8.03421053 L17.9,8.03421053 C18.0381099,8.05063438 18.1776795,8.05063438 18.3157895,8.03421053 L18.3736842,8.03421053 L18.5184211,8.00789474 L18.5394737,8.00789474 Z" id="Shape"></path>
                            <circle id="Oval" cx="11.2394737" cy="6.82631579" r="1"></circle>
                        </g>
                    </g>
                </g>
            </g>
        </g>
    </g>
</svg>