<?xml version="1.0" encoding="UTF-8"?>
<svg width="24px" height="21px" viewBox="0 0 24 21" version="1.1" xmlns="http://www.w3.org/2000/svg" xmlns:xlink="http://www.w3.org/1999/xlink">
    <!-- Generator: Sketch 46.2 (44496) - http://www.bohemiancoding.com/sketch -->
    <title>icon</title>
    <desc>Created with Sketch.</desc>
    <defs></defs>
    <g id="Designs" stroke="none" stroke-width="1" fill="none" fill-rule="evenodd">
        <g id="Desktop" transform="translate(-176.000000, -2154.000000)" fill-rule="nonzero" fill="#FFFFFF">
            <g id="Content" transform="translate(0.000000, 1619.000000)">
                <g id="3-benefits">
                    <g id="Group" transform="translate(176.000000, 227.000000)">
                        <g id="icon" transform="translate(0.000000, 308.000000)">
                            <path d="M15.711375,8.663625 C15.56475,8.517 15.32775,8.517 15.181125,8.663625 L13.77675,10.068375 C12.4335,9.5865 10.941,9.66375 9.669,10.299375 C8.817375,10.723125 8.095875,11.37075 7.58175,12.1725 L7.451625,12.375375 L7.58175,12.577875 C8.064,13.327875 8.718,13.933125 9.489,14.355375 L8.28825,15.556125 C8.141625,15.70275 8.141625,15.93975 8.28825,16.086375 C8.361375,16.1595 8.457375,16.19625 8.553375,16.19625 C8.649375,16.19625 8.745375,16.1595 8.8185,16.086375 L15.711,9.193875 C15.858,9.04725 15.858,8.81025 15.711375,8.663625 Z M10.051125,13.793625 C9.376125,13.465875 8.7915,12.987 8.350875,12.375 C8.7795,11.78025 9.3465,11.297625 10.003875,10.970625 C10.152375,10.896375 10.304625,10.8315 10.459125,10.774875 C10.566,10.90425 10.630875,11.068875 10.630875,11.250375 C10.630875,11.662875 10.297125,12.000375 9.880875,12.000375 C9.835875,12.000375 9.790875,11.996625 9.749625,11.985375 C9.919875,12.475125 10.2555,12.88575 10.6875,13.15725 L10.051125,13.793625 Z M15.284625,10.909875 C15.122625,10.778625 14.887125,10.804875 14.757375,10.965375 C14.626875,11.126625 14.652,11.362875 14.812875,11.492625 C15.1335,11.75175 15.414375,12.047625 15.6495,12.374625 C14.801625,13.553625 13.455,14.25 12,14.25 C11.891625,14.25 11.783625,14.247 11.67525,14.236875 C11.464875,14.212125 11.286,14.368875 11.2665,14.57475 C11.247,14.781 11.3985,14.963625 11.604375,14.983125 C11.736375,14.9955 11.868375,15 12,15 C13.792875,15 15.44475,14.094375 16.41825,12.5775 L16.548,12.375375 L16.418625,12.17325 C16.114875,11.697375 15.733125,11.2725 15.284625,10.909875 Z M22.125,0.75 L8.88825,0.75 L8.556375,0.465375 C8.158125,0.124125 7.033875,0 6.375,0 L1.875,0 C0.841125,0 0,0.841125 0,1.875 L0,18.375 C0,19.408875 0.841125,20.25 1.875,20.25 L22.125,20.25 C23.158875,20.25 24,19.408875 24,18.375 L24,2.625 C24,1.591125 23.158875,0.75 22.125,0.75 Z M23.25,18.375 C23.25,18.99525 22.74525,19.5 22.125,19.5 L1.875,19.5 C1.25475,19.5 0.75,18.99525 0.75,18.375 L0.75,1.875 C0.75,1.25475 1.25475,0.75 1.875,0.75 L6.375,0.75 C7.243125,0.75 7.94775,0.937875 8.067375,1.03425 L11.742,4.1835 C12.439875,4.781625 13.70625,5.25 14.625,5.25 L22.125,5.25 C22.74525,5.25 23.25,5.75475 23.25,6.375 L23.25,18.375 Z M23.25,4.87575 C23.23575,4.864875 23.218875,4.857 23.20425,4.8465 C23.173125,4.824375 23.1405,4.805625 23.107875,4.785375 C23.044875,4.746 22.979625,4.710375 22.912125,4.678875 C22.875375,4.662 22.839375,4.6455 22.801125,4.630875 C22.729125,4.60275 22.654125,4.580625 22.578,4.5615 C22.54275,4.552875 22.508625,4.541625 22.473,4.534875 C22.35975,4.513875 22.243875,4.5 22.125,4.5 L14.625,4.5 C13.887,4.5 12.790125,4.09425 12.229875,3.61425 L9.763125,1.5 L22.125,1.5 C22.74525,1.5 23.25,2.00475 23.25,2.625 L23.25,4.87575 Z" id="Shape"></path>
                        </g>
                    </g>
                </g>
            </g>
        </g>
    </g>
</svg>