<?xml version="1.0" encoding="UTF-8"?>
<svg width="20px" height="20px" viewBox="0 0 20 20" version="1.1" xmlns="http://www.w3.org/2000/svg" xmlns:xlink="http://www.w3.org/1999/xlink">
    <!-- Generator: Sketch 46.2 (44496) - http://www.bohemiancoding.com/sketch -->
    <title>icon</title>
    <desc>Created with Sketch.</desc>
    <defs></defs>
    <g id="Designs" stroke="none" stroke-width="1" fill="none" fill-rule="evenodd">
        <g id="Desktop" transform="translate(-176.000000, -2008.000000)" fill-rule="nonzero" fill="#FFFFFF">
            <g id="Content" transform="translate(0.000000, 1619.000000)">
                <g id="3-benefits">
                    <g id="Group-Copy" transform="translate(176.000000, 384.000000)">
                        <g id="icon" transform="translate(0.000000, 5.000000)">
                            <path d="M18.5232836,10.2247761 C18.3238806,6.34567164 15.5608955,3.08208955 11.8101493,2.21850746 C11.5513433,2.15880597 11.2934328,2.32059701 11.2334328,2.57910448 C11.1737313,2.83791045 11.3355224,3.0958209 11.5943284,3.15552239 C14.9283582,3.92328358 17.3853731,6.82567164 17.5626866,10.2743284 C17.5764179,10.539403 17.8023881,10.7432836 18.0674627,10.7295522 C18.3325373,10.7158209 18.5367164,10.4901493 18.5232836,10.2247761 L18.5232836,10.2247761 L18.5232836,10.2247761 Z M7.42179104,2.34328358 C3.74865672,3.41402985 1.17552239,6.79343284 1.17552239,10.6770149 C1.17552239,11.5226866 1.29671642,12.3531343 1.53283582,13.1489552 C1.60835821,13.4038806 1.8758209,13.5489552 2.13044776,13.4734328 C2.38507463,13.3979104 2.53014925,13.1304478 2.45462687,12.8755224 C2.24477612,12.1683582 2.13701493,11.4298507 2.13701493,10.6770149 C2.13701493,7.22358209 4.42537313,4.21820896 7.69074627,3.26626866 C7.94567164,3.1919403 8.00955224,2.92268657 7.93522388,2.66776119 C7.86119403,2.41283582 7.67671642,2.26895522 7.42179104,2.34328358 L7.42179104,2.34328358 L7.42179104,2.34328358 Z M3.77074627,16.8671642 C5.38298507,18.4519403 7.54835821,19.3564179 9.85492537,19.3564179 C12.3444776,19.3564179 14.6647761,18.3023881 16.3002985,16.4901493 C16.478209,16.2928358 16.4626866,15.9886567 16.2653731,15.8110448 C16.0686567,15.6331343 15.7641791,15.6486567 15.5865672,15.8459701 C14.1316418,17.4579104 12.0695522,18.3949254 9.85522388,18.3949254 C7.80298507,18.3949254 5.87940299,17.5913433 4.44507463,16.181194 C4.2558209,15.9949254 3.95134328,15.9976119 3.76507463,16.1868657 C3.57880597,16.3764179 3.58149254,16.6808955 3.77074627,16.8671642 L3.77074627,16.8671642 L3.77074627,16.8671642 Z" id="Shape"></path>
                            <path d="M9.56208955,5.30179104 C10.96,5.30179104 12.0928358,4.16865672 12.0928358,2.77104478 C12.0928358,1.37343284 10.96,0.240597015 9.56208955,0.240597015 C8.16477612,0.240597015 7.03164179,1.37343284 7.03164179,2.77104478 C7.03164179,4.16865672 8.16477612,5.30179104 9.56208955,5.30179104 L9.56208955,5.30179104 L9.56208955,5.30179104 Z M9.56208955,4.34 C8.6958209,4.34 7.99343284,3.63731343 7.99343284,2.77104478 C7.99343284,1.90447761 8.6958209,1.20208955 9.56208955,1.20208955 C10.4286567,1.20208955 11.1310448,1.90447761 11.1310448,2.77104478 C11.1310448,3.63761194 10.4289552,4.34 9.56208955,4.34 L9.56208955,4.34 L9.56208955,4.34 Z" id="Shape"></path>
                            <path d="M2.53492537,17.5997015 C3.93253731,17.5997015 5.06567164,16.4665672 5.06567164,15.0689552 C5.06567164,13.6713433 3.93253731,12.538209 2.53492537,12.538209 C1.13731343,12.538209 0.00447761194,13.6716418 0.00447761194,15.0689552 C0.00447761194,16.4662687 1.13731343,17.5997015 2.53492537,17.5997015 L2.53492537,17.5997015 L2.53492537,17.5997015 Z M2.53492537,16.6379104 C1.66835821,16.6379104 0.966268657,15.9352239 0.966268657,15.0689552 C0.966268657,14.2026866 1.66865672,13.5 2.53492537,13.5 C3.40119403,13.5 4.1038806,14.2026866 4.1038806,15.0689552 C4.1038806,15.9352239 3.40119403,16.6379104 2.53492537,16.6379104 L2.53492537,16.6379104 L2.53492537,16.6379104 Z" id="Shape"></path>
                            <path d="M17.1752239,17.0140299 C18.5728358,17.0140299 19.7059701,15.8808955 19.7059701,14.4832836 C19.7059701,13.0856716 18.5728358,11.9525373 17.1752239,11.9525373 C15.7776119,11.9525373 14.6447761,13.0856716 14.6447761,14.4832836 C14.6447761,15.8808955 15.7776119,17.0140299 17.1752239,17.0140299 L17.1752239,17.0140299 L17.1752239,17.0140299 Z M17.1752239,16.0522388 C16.3089552,16.0522388 15.6065672,15.3495522 15.6065672,14.4832836 C15.6065672,13.6170149 16.3089552,12.9143284 17.1752239,12.9143284 C18.041791,12.9143284 18.7444776,13.6170149 18.7444776,14.4832836 C18.7444776,15.3495522 18.041791,16.0522388 17.1752239,16.0522388 L17.1752239,16.0522388 L17.1752239,16.0522388 Z" id="Shape"></path>
                        </g>
                    </g>
                </g>
            </g>
        </g>
    </g>
</svg>