<?xml version="1.0" encoding="UTF-8"?>
<svg width="20px" height="20px" viewBox="0 0 20 20" version="1.1" xmlns="http://www.w3.org/2000/svg" xmlns:xlink="http://www.w3.org/1999/xlink">
    <!-- Generator: Sketch 46.2 (44496) - http://www.bohemiancoding.com/sketch -->
    <title>Shape</title>
    <desc>Created with Sketch.</desc>
    <defs></defs>
    <g id="Mobile" stroke="none" stroke-width="1" fill="none" fill-rule="evenodd">
        <g id="Mobile---Landing-Page" transform="translate(-15.000000, -2096.000000)" fill-rule="nonzero" fill="#A0A6AD">
            <g id="For-Escorts" transform="translate(0.000000, 1814.000000)">
                <g id="Content" transform="translate(15.000000, 282.000000)">
                    <path d="M10,20 C4.5,20 0,15.5 0,10 C0,4.5 4.5,0 10,0 C15.5,0 20,4.5 20,10 C20,15.5 15.5,20 10,20 Z M10,1.33333333 C5.23333333,1.33333333 1.33333333,5.23333333 1.33333333,10 C1.33333333,14.7666667 5.23333333,18.6666667 10,18.6666667 C14.7666667,18.6666667 18.6666667,14.7666667 18.6666667,10 C18.6666667,5.23333333 14.7666667,1.33333333 10,1.33333333 Z M8.73333333,16.3 L10.6666667,10.2333333 C10.7333333,10.0333333 10.7,9.83333333 10.6,9.66666667 L8.1,5.9 C7.9,5.6 7.46666667,5.5 7.16666667,5.7 C6.86666667,5.9 6.76666667,6.33333333 6.96666667,6.63333333 L9.3,10.1333333 L7.46666667,15.9 C7.36666667,16.2666667 7.56666667,16.6333333 7.9,16.7333333 C7.96666667,16.7666667 8.03333333,16.7666667 8.1,16.7666667 C8.36666667,16.7666667 8.63333333,16.5666667 8.73333333,16.3 Z" id="Shape"></path>
                </g>
            </g>
        </g>
    </g>
</svg>